<svg version="1.1" xmlns="http://www.w3.org/2000/svg" xmlns:xlink="http://www.w3.org/1999/xlink" width="700" height="700" viewBox="418,17.5,700,700"><defs><clipPath id="clip-1"><rect x="631.5" y="210.60001" width="273" height="314" id="clip-1" fill="none"/></clipPath></defs><g id="document" fill="#ffffff" fill-rule="nonzero" stroke="#000000" stroke-width="0" stroke-linecap="butt" stroke-linejoin="miter" stroke-miterlimit="10" stroke-dasharray="" stroke-dashoffset="0" font-family="none" font-weight="none" font-size="none" text-anchor="none" style="mix-blend-mode: normal"><rect x="418" y="12.5" transform="scale(1,1.4)" width="700" height="500" id="Shape 1 1" vector-effect="non-scaling-stroke"/></g><g fill="none" fill-rule="nonzero" stroke="none" stroke-width="1" stroke-linecap="butt" stroke-linejoin="miter" stroke-miterlimit="10" stroke-dasharray="" stroke-dashoffset="0" font-family="none" font-weight="none" font-size="none" text-anchor="none" style="mix-blend-mode: normal"><g><g id="stage"><g id="layer1 1"><g clip-path="url(#clip-1)" id="Group 1"><g id="Group 1" fill="#ffffff"><path d="M728.1,242.20001c-5.4,2 -10.2,5.8 -13.4,10.7c-2.5,3.9 -2.7,5.1 -3,17.4l-0.4,13.3h7.6h7.6v-9.5c0,-10.2 1.3,-14.5 4.9,-16.5c1.2,-0.6 12.8,-1 30.5,-1h28.5l2.8,2.4c2.7,2.3 2.8,2.8 3.1,13.6l0.4,11.1l7.6,-0.3l7.7,-0.3v-11c-0.1,-10.1 -0.3,-11.6 -2.8,-16.8c-3.2,-6.5 -8.2,-11 -14.6,-13.2c-6.3,-2.1 -60.6,-2.1 -66.5,0.1z" id="Path 1"/><path d="M685.6,284.90001c-4.9,1.9 -10.8,7.2 -12,10.9c-0.5,1.8 -3.3,21.1 -6,42.8c-2.8,21.7 -7.1,55.3 -9.6,74.7c-6.4,50.5 -6.3,48.6 -3.2,51.7l2.6,2.6h104.1h104.1l2.4,-2.5c1.7,-1.6 2.5,-3.5 2.5,-5.9c0,-6.2 -20,-161 -21.1,-163.9c-1.7,-4 -8.2,-9.3 -13.4,-10.7c-9.4,-2.6 -18.7,0.8 -26.2,9.7c-2.6,3.1 -6.2,7.2 -7.8,9.1l-3.1,3.4l-8.9,-7.6c-4.9,-4.2 -9.4,-7.5 -9.9,-7.3c-2,0.6 -11.6,15.8 -11.6,18.3c0,2.3 -0.3,2.4 -7,2.4c-6.8,0 -7,-0.1 -7,-2.5c0,-2.8 -9.8,-18.4 -11.6,-18.5c-0.6,0 -5.1,3.5 -9.9,7.7l-8.8,7.7l-3.1,-3.5c-1.7,-2 -5.4,-6.3 -8.3,-9.6c-2.8,-3.3 -6.7,-6.7 -8.6,-7.7c-4.8,-2.2 -14.4,-2.9 -18.6,-1.3zM772.4,330.80001c1.2,6.8 5.1,28.4 8.8,48.1c7.6,41.6 8.3,34.5 -5.2,57.2c-8.1,13.7 -12.4,19.5 -14.4,19.5c-2,0 -6.4,-5.8 -14.5,-19.5c-11.2,-18.9 -11.9,-20.3 -11.3,-23.9c2.9,-16.7 17,-92.3 17.3,-92.8c0.3,-0.5 4.2,-0.8 8.8,-0.8h8.2zM828.9,331.20001c0.3,0.9 0.4,2 0.1,2.4c-0.8,1.3 -34.3,1.2 -35.1,-0.1c-0.3,-0.5 -0.3,-1.6 0,-2.4c0.4,-1.2 3.6,-1.5 17.5,-1.5c14.5,0 17,0.2 17.5,1.6z" id="CompoundPath 1"/></g></g></g></g></g></g></svg>