<?xml version="1.0" standalone="no"?>
<!DOCTYPE svg PUBLIC "-//W3C//DTD SVG 20010904//EN"
 "http://www.w3.org/TR/2001/REC-SVG-20010904/DTD/svg10.dtd">
<svg version="1.0" xmlns="http://www.w3.org/2000/svg"
 width="618.000000pt" height="508.000000pt" viewBox="0 0 618.000000 508.000000"
 preserveAspectRatio="xMidYMid meet">

<g transform="translate(0.000000,508.000000) scale(0.100000,-0.100000)"
fill="#000000" stroke="none">
<path d="M1498 4720 c-143 -24 -265 -131 -314 -273 l-16 -47 -321 -2 -322 -3
-3 -238 c-2 -185 0 -239 10 -242 7 -3 87 -6 178 -8 180 -4 199 -8 230 -60 24
-38 25 -78 5 -117 -26 -50 -46 -55 -240 -60 l-180 -5 0 -200 0 -200 203 -3
c111 -1 202 -5 202 -8 0 -4 -135 -144 -301 -312 l-301 -305 726 -726 c399
-399 726 -732 726 -739 0 -9 -57 -12 -250 -12 -143 0 -272 -5 -302 -11 -141
-29 -267 -126 -326 -250 -29 -61 -56 -182 -44 -194 3 -3 394 -5 869 -5 l863 0
0 245 0 245 93 0 92 0 134 -134 133 -134 -21 -56 c-11 -31 -24 -81 -27 -111
l-7 -55 1029 0 1029 0 -283 283 c-155 155 -282 285 -282 290 0 4 242 7 538 7
295 0 579 0 630 0 l92 0 0 270 0 270 -512 2 -513 3 0 115 0 115 425 2 c234 1
416 -2 405 -6 -11 -4 -75 -18 -143 -30 -100 -19 -121 -26 -112 -37 24 -28 104
-49 185 -49 67 0 89 5 137 28 60 30 130 93 155 140 14 28 13 32 -14 75 -34 55
-110 116 -172 137 -105 36 -247 10 -328 -60 l-41 -35 -323 -2 -324 -3 -3 -272
-2 -273 515 0 515 0 0 -120 0 -120 -638 0 -637 0 -645 645 -645 645 -262 0
c-145 0 -263 3 -263 8 0 4 226 233 503 508 545 544 560 557 724 612 70 24 93
26 218 26 106 0 154 -4 198 -18 32 -10 57 -19 55 -21 -2 -2 -51 -9 -109 -15
-121 -12 -228 -39 -302 -76 -126 -64 -187 -118 -612 -544 -236 -237 -432 -433
-434 -435 -2 -3 43 -5 100 -5 l104 0 360 358 c198 197 385 377 414 401 69 53
145 92 241 123 98 30 290 32 388 4 34 -10 62 -22 62 -26 0 -4 -46 -10 -102
-13 -171 -10 -329 -68 -463 -170 -33 -25 -212 -198 -398 -384 l-337 -338 55
-55 55 -54 353 351 c354 353 400 392 522 445 132 58 310 71 452 34 87 -23 97
-35 28 -36 -154 -1 -306 -43 -440 -122 -80 -47 -128 -91 -448 -407 -196 -195
-356 -358 -355 -361 2 -4 25 -31 51 -60 l48 -53 352 350 c380 378 429 418 577
464 142 44 310 45 434 2 l51 -17 -95 -8 c-181 -15 -333 -68 -463 -162 -34 -24
-215 -198 -402 -385 l-340 -341 50 -50 c27 -28 53 -49 57 -48 3 2 163 158 355
348 303 300 358 351 427 389 119 68 217 94 351 94 104 0 227 -21 248 -42 4 -4
-32 -11 -80 -14 -176 -13 -341 -74 -473 -175 -36 -28 -211 -197 -389 -375
l-324 -326 33 -38 c18 -21 43 -45 56 -53 23 -14 31 -7 376 336 329 326 359
353 434 392 223 114 457 114 678 -1 61 -32 107 -67 189 -146 l108 -104 49 48
c28 27 50 54 50 60 0 14 -1213 1223 -1276 1272 -74 57 -205 119 -304 144 -111
28 -290 30 -405 5 -98 -22 -269 -101 -338 -158 -29 -23 -306 -294 -617 -604
-409 -406 -574 -565 -599 -573 -40 -13 -143 -71 -184 -103 l-27 -22 -40 39
-40 39 705 706 705 705 0 103 c0 56 -3 102 -8 102 -11 0 -1612 -1604 -1612
-1615 0 -6 42 -52 94 -104 l94 -93 -20 -34 c-11 -19 -23 -34 -27 -34 -10 0
-261 254 -261 265 0 6 392 402 870 880 l870 870 0 102 c0 57 -3 103 -7 103
-12 0 -1953 -1944 -1953 -1955 0 -6 97 -104 215 -219 l215 -209 -6 -51 c-4
-28 -9 -53 -11 -56 -2 -2 -125 117 -273 265 l-270 270 1040 1040 c572 572
1040 1043 1040 1048 0 4 -46 7 -103 7 l-102 0 -1043 -1043 c-573 -573 -1042
-1047 -1042 -1052 0 -6 171 -181 380 -390 l380 -380 0 -52 c0 -29 -3 -53 -8
-53 -4 0 -205 198 -446 439 l-439 439 1034 1036 c569 570 1035 1040 1037 1046
2 6 -33 10 -95 10 l-98 0 -1048 -1048 -1047 -1047 555 -555 555 -555 0 -52 c0
-29 -3 -53 -8 -53 -4 0 -282 274 -617 610 l-610 610 1035 1035 c569 569 1037
1040 1038 1045 4 12 -1048 12 -1120 0z m182 -730 l-585 -579 -205 2 -205 2 -3
46 -3 47 113 4 c167 6 241 48 296 167 21 45 24 64 20 126 -6 90 -42 155 -112
202 -64 43 -103 53 -218 53 l-98 0 0 95 0 95 468 2 467 3 0 70 0 70 -137 3
c-131 2 -138 4 -138 23 0 28 97 122 140 136 23 7 167 11 410 12 l374 1 -584
-580z m2137 -2282 c474 -474 860 -865 857 -870 -7 -11 -1482 -10 -1488 1 -3 5
11 29 31 55 25 32 56 56 102 79 l66 32 302 3 303 3 0 75 0 74 -183 0 -182 0
-415 415 c-228 228 -420 415 -425 415 -6 0 -33 -23 -60 -50 l-50 -50 365 -365
c229 -229 359 -366 349 -368 -103 -30 -133 -41 -181 -70 l-56 -34 -153 153
-154 154 -127 0 -127 0 -3 148 -3 147 -82 3 -83 3 -2 -413 -3 -413 -240 0
-240 0 -3 630 c-2 426 1 651 8 695 35 205 205 370 411 400 30 4 178 8 329 9
l275 1 862 -862z m-2042 -788 l0 -85 -359 0 c-271 0 -360 3 -363 12 -7 19 75
100 125 124 70 34 97 37 357 35 l240 -1 0 -85z"/>
</g>
</svg>
